<svg xmlns="http://www.w3.org/2000/svg" viewBox="0 0 62.52 63"><defs><style>.cls-1{fill:#a9aaab;}</style></defs><title>Ресурс 1</title><g id="Слой_2" data-name="Слой 2"><g id="Слой_1-2" data-name="Слой 1"><path class="cls-1" d="M31.52,0h-.27A31.52,31.52,0,0,0,9,53.54,30.92,30.92,0,0,0,31,63h.27A31.55,31.55,0,0,0,62.52,31.76C62.66,14.52,48.76,1,31.52,0Zm-.25,61H31A29.09,29.09,0,0,1,10.4,52.26,29.6,29.6,0,0,1,31.25,2h.25c16.14,1,29.15,13.61,29,29.74A29.55,29.55,0,0,1,31.27,61Z"/><path class="cls-1" d="M32.26,31.33l.19-22.26a1.06,1.06,0,0,0-1-1.07h0a1,1,0,0,0-1,1.05L30.26,31.7a1,1,0,0,0,.29.73L42.88,45a1,1,0,0,0,.71.3,1,1,0,0,0,.7-.28,1,1,0,0,0,0-1.42Z"/></g></g></svg>