<?xml version="1.0" encoding="utf-8"?>
<!-- Generator: Adobe Illustrator 24.0.2, SVG Export Plug-In . SVG Version: 6.00 Build 0)  -->
<svg version="1.1" id="Ğ¡Ğ»Ğ¾Ğ¹_1" xmlns="http://www.w3.org/2000/svg" xmlns:xlink="http://www.w3.org/1999/xlink" x="0px" y="0px"
	 viewBox="0 0 44 62.2" style="enable-background:new 0 0 44 62.2;" xml:space="preserve">
<style type="text/css">
	.st0{<fill: #445588;}
</style>
<g>
	<path class="st0" d="M22,15c-3.9,0-7,3.1-7,7s3.1,7,7,7c3.9,0,7-3.1,7-7S25.9,15,22,15z M22,27c-2.8,0-5-2.2-5-5c0-2.8,2.2-5,5-5
		c2.8,0,5,2.2,5,5C27,24.8,24.8,27,22,27z"/>
	<path class="st0" d="M22,0C9.9,0,0,10.2,0,22.7c0,12.6,13.2,30.7,18.8,38c0.8,1,1.9,1.5,3.2,1.5c1.2,0,2.4-0.6,3.1-1.5
		c5.7-7.2,18.9-25.4,18.9-38C43.9,10.2,34.1,0,22,0z M23.5,59.5c-0.8,1-2.4,1-3.2,0C14.9,52.4,2,34.7,2,22.7C2,11.3,11,2,22,2
		c11,0,20,9.3,20,20.7C42.1,34.7,29.1,52.4,23.5,59.5z"/>
</g>
</svg>
